<?xml version="1.0" encoding="UTF-8"?>
<svg width="137px" height="48px" viewBox="0 0 137 48" version="1.1" xmlns="http://www.w3.org/2000/svg" xmlns:xlink="http://www.w3.org/1999/xlink">
    <!-- Generator: Sketch 53.2 (72643) - https://sketchapp.com -->
    <title>logo</title>
    <desc>Created with Sketch.</desc>
    <g id="Page-1" stroke="none" stroke-width="1" fill="none" fill-rule="evenodd">
        <g id="Desktop-HD-Copy-5" transform="translate(-90.000000, -4894.000000)" fill="#F9234D" fill-rule="nonzero">
            <g id="Group-26" transform="translate(0.000000, 4822.000000)">
                <g id="Group-24">
                    <g id="Group-23" transform="translate(90.000000, 48.000000)">
                        <g id="logo" transform="translate(0.000000, 24.000000)">
                            <g id="Group">
                                <path d="M40.7773737,47.8884848 L7.11111111,47.8884848 C3.18559896,47.8840316 0.00445322285,44.7028859 0,40.7773737 L0,7.11111111 C0.00445322285,3.18559896 3.18559896,0.00445322285 7.11111111,0 L34.0137374,0 C35.0848351,6.55858183e-17 35.9531313,0.868296243 35.9531313,1.93939394 C35.9531313,3.01049164 35.0848351,3.87878788 34.0137374,3.87878788 L7.11111111,3.87878788 C5.32594828,3.87878788 3.87878788,5.32594828 3.87878788,7.11111111 L3.87878788,40.7773737 C3.87878788,42.5625366 5.32594828,44.009697 7.11111111,44.009697 L40.7773737,44.009697 C42.5625366,44.009697 44.009697,42.5625366 44.009697,40.7773737 L44.009697,13.6258586 C44.009697,12.5547609 44.8779932,11.6864646 45.9490909,11.6864646 C47.0201886,11.6864646 47.8884848,12.5547609 47.8884848,13.6258586 L47.8884848,40.7773737 C47.8840316,44.7028859 44.7028859,47.8840316 40.7773737,47.8884848 Z" id="Path"></path>
                                <g transform="translate(10.343434, 14.868687)">
                                    <path d="M9.31717172,19.780202 C8.88096831,19.780664 8.49492071,19.4979986 8.36363636,19.0820202 L8.36363636,19.0820202 C8.28856185,18.8449483 8.22970538,18.6030428 8.18747475,18.3579798 C7.74365911,18.8669565 7.20236711,19.2818554 6.59555556,19.5781818 C5.92638252,19.8970472 5.1920199,20.0553198 4.45090909,20.040404 C3.11703704,20.040404 2.05791246,19.6778451 1.27353535,18.9527273 C0.489158249,18.2276094 0.0975084175,17.243367 0.0985858586,16 C0.0985858586,14.7253872 0.61037037,13.7400673 1.63393939,13.0440404 C2.65750842,12.3480135 4.16,11.9973064 6.14141414,11.9919192 L8.01616162,11.9919192 L8.01616162,10.6585859 C8.01616162,10.0045791 7.82760943,9.49710438 7.45050505,9.13616162 C7.07340067,8.77521886 6.51582492,8.59474747 5.77777778,8.59474747 C5.39941851,8.58957746 5.02226515,8.63855841 4.65777778,8.74020202 C4.53494949,8.77683502 4.42074074,8.8156229 4.31515152,8.85656566 C4.04094449,8.96672849 3.84380508,9.21162218 3.79474747,9.5030303 L3.76080808,9.6969697 C3.68016454,10.1868898 3.25691667,10.5465479 2.76040404,10.5470707 L1.87151515,10.5470707 C1.60177284,10.5470721 1.3431254,10.4396966 1.15269226,10.248657 C0.962259119,10.0576174 0.855706605,9.79862984 0.856565657,9.52888889 L0.856565657,8.86949495 C0.855863584,7.97829993 1.37045691,7.16704388 2.1769697,6.78787879 C2.49373737,6.64026936 2.82666667,6.50397306 3.17575758,6.3789899 C4.08781998,6.0612972 5.0479775,5.90382262 6.01373737,5.91353535 C7.69993266,5.91353535 9.06936027,6.32673401 10.1220202,7.15313131 C11.1746801,7.97952862 11.7010101,9.15609428 11.7010101,10.6828283 L11.7010101,16.3070707 C11.7010101,16.5171717 11.7010101,16.7143434 11.7010101,16.8985859 C11.7043799,17.0754922 11.7189546,17.2520074 11.7446465,17.4270707 L11.9854545,17.4593939 C12.4887461,17.5273235 12.8643579,17.9567914 12.8646465,18.4646465 L12.8646465,18.7652525 C12.8646465,19.3257937 12.4102381,19.780202 11.849697,19.780202 L9.31717172,19.780202 Z M5.43838384,17.3268687 C6.29008881,17.3365848 7.1106271,17.0068575 7.71878788,16.4105051 C7.90441427,16.2218045 8.00783461,15.9673208 8.00646465,15.7026263 L8.00646465,15.0076768 C8.00646465,14.4471356 7.55205628,13.9927273 6.99151515,13.9927273 L6.14141414,13.9927273 C5.3613468,13.9927273 4.76875421,14.1753535 4.36363636,14.5406061 C3.97765366,14.8682606 3.7563741,15.349869 3.75919192,15.8561616 C3.73701789,16.2658958 3.90091394,16.6637594 4.20525253,16.9389899 C4.5037037,17.1975758 4.91690236,17.3268687 5.44484848,17.3268687 L5.43838384,17.3268687 Z" id="Shape"></path>
                                    <path d="M13.7244444,1.3640404 L13.7244444,1.3640404 C13.7244444,0.694604344 14.2671296,0.151919192 14.9365657,0.151919192 L18.1478788,0.151919192 C18.8173148,0.151919192 19.36,0.694604344 19.36,1.3640404 L19.36,17.2024242 L20.1680808,17.3753535 C20.7280756,17.4944369 21.1283887,17.9890998 21.1280808,18.5616162 L21.1280808,18.5616162 C21.1280808,19.2310522 20.5853957,19.7737374 19.9159596,19.7737374 L15.1256566,19.7737374 C14.4562205,19.7737374 13.9135354,19.2310522 13.9135354,18.5616162 L13.9135354,18.5616162 C13.911975,17.9899639 14.3100259,17.494926 14.8686869,17.3737374 L15.6767677,17.2008081 L15.6767677,2.74747475 L14.7070707,2.55515152 C14.1362935,2.44509391 13.7240063,1.94533127 13.7244444,1.3640404 Z" id="Path"></path>
                                    <path d="M27.7527273,3.46505051 L27.7527273,6.16727273 L29.5111111,6.16727273 C29.8601104,6.16727273 30.1430303,6.45019259 30.1430303,6.79919192 L30.1430303,8.11313131 C30.1430303,8.46213065 29.8601104,8.74505051 29.5111111,8.74505051 L27.7527273,8.74505051 L27.7527273,15.6767677 C27.7527273,16.2047138 27.8604714,16.5818182 28.0759596,16.8080808 C28.3085451,17.0403903 28.6284355,17.1636508 28.9567677,17.1474747 C29.1774992,17.1492843 29.3981647,17.1390334 29.6177778,17.1167677 L29.6177778,17.1167677 C29.9656125,17.0749032 30.2819284,17.3218896 30.3256566,17.6694949 L30.4985859,19.1240404 C30.536512,19.4405272 30.3327921,19.7357132 30.0234343,19.8125253 C29.7950168,19.8674747 29.5676768,19.9127273 29.3414141,19.9482828 C28.9081252,20.0132809 28.4704526,20.0446204 28.0323232,20.0420202 C26.7652525,20.0420202 25.7901684,19.6940067 25.1070707,18.9979798 C24.4239731,18.3019529 24.0824242,17.1991919 24.0824242,15.689697 L24.0824242,8.74020202 L22.7232323,8.74020202 C22.374233,8.74020202 22.0913131,8.45728216 22.0913131,8.10828283 L22.0913131,6.79434343 C22.0913131,6.4453441 22.374233,6.16242424 22.7232323,6.16242424 L24.0905051,6.16242424 L24.0905051,3.46505051 C24.0905051,3.11605117 24.3734249,2.83313131 24.7224242,2.83313131 L27.1175758,2.83313131 C27.2857305,2.83227118 27.4472932,2.89846827 27.5665011,3.01706947 C27.6857089,3.13567066 27.7527295,3.29689357 27.7527273,3.46505051 L27.7527273,3.46505051 Z" id="Path"></path>
                                </g>
                            </g>
                            <g id="Group" transform="translate(53.000000, 22.000000)">
                                <path d="M9.24,9.17590361 C9.65678251,9.1774689 10.0449423,9.39497119 10.2732405,9.75487178 C10.5015386,10.1147724 10.5394526,10.568954 10.3741634,10.9638554 C10.11933,11.589123 9.72779871,12.1450637 9.23019455,12.5881928 C8.29322957,13.4169478 7.06210117,13.8313253 5.53680934,13.8313253 C3.86879377,13.8313253 2.55649805,13.2516466 1.59992218,12.0922892 C0.643346304,10.9329317 0.164513619,9.34289157 0.163424125,7.32216867 L0.163424125,6.50072289 C0.137811954,5.32771792 0.360917275,4.16311038 0.817120623,3.08843373 C1.21468228,2.15578401 1.87310007,1.36696387 2.70793774,0.82313253 C3.56772014,0.285626133 4.55797888,0.011824895 5.5629572,0.0337349398 C7.06428016,0.0337349398 8.27361868,0.448674699 9.19097276,1.27855422 C9.72358025,1.75662917 10.1376691,2.35925901 10.398677,3.03614458 C10.5469098,3.42896412 10.4971941,3.8720408 10.2658984,4.21949474 C10.0346028,4.56694867 9.65170386,4.77374865 9.24326848,4.77180723 L9.13867704,4.77180723 C8.58842316,4.76802072 8.10562675,4.39240483 7.95058366,3.84746988 C7.8546433,3.48338235 7.66751462,3.15178512 7.40801556,2.8860241 C7.00599222,2.49582329 6.3936965,2.30072289 5.5711284,2.30072289 C4.67774319,2.30072289 4.00879377,2.6313253 3.56428016,3.29253012 C3.11976654,3.95373494 2.89206226,4.97927711 2.88116732,6.36915663 L2.88116732,7.38120482 C2.88116732,8.83293173 3.09416342,9.89389558 3.52015564,10.5640964 C3.94614786,11.2342972 4.61782101,11.5716466 5.5351751,11.5761446 C6.36319066,11.5761446 6.9814786,11.3810442 7.39003891,10.9908434 C7.64026089,10.7427352 7.82479338,10.432655 7.92607004,10.0901205 C8.08816088,9.55366748 8.56649071,9.1859477 9.11089494,9.17927711 L9.24,9.17590361 Z" id="Path"></path>
                                <path d="M21.84,10.8828916 L17.1382879,10.8828916 L16.5270817,12.7771084 C16.358373,13.2980067 15.8858319,13.6491945 15.3536965,13.6491566 L15.17393,13.6491566 C14.7688718,13.648895 14.3895948,13.4439863 14.1585574,13.10059 C13.92752,12.7571937 13.8739908,12.3188125 14.0152529,11.926988 L17.9374319,1.04915663 C18.1175772,0.549479663 18.5795558,0.217924058 19.0961089,0.217590361 L19.8642023,0.217590361 C20.3799255,0.217397935 20.8416609,0.547434625 21.0228794,1.04578313 L24.9679377,11.9236145 C25.1098805,12.3156352 25.0566879,12.7545637 24.8255661,13.098422 C24.5944442,13.4422803 24.2147348,13.6474141 23.8092607,13.6474699 L23.6294942,13.6474699 C23.0988248,13.6472701 22.6273891,13.2977725 22.4577432,12.7787952 L21.84,10.8828916 Z M17.8622568,8.64120482 L21.1160311,8.64120482 L19.4817899,3.6146988 L17.8622568,8.64120482 Z" id="Shape"></path>
                                <path d="M32.5622568,1.06939759 L35.6133852,9.96024096 L38.646537,1.07108434 C38.8211687,0.560523295 39.288797,0.219151379 39.8133852,0.219277108 L41.2221012,0.219277108 C41.550206,0.219277108 41.8648724,0.353803831 42.0968775,0.593262932 C42.3288827,0.832722033 42.4592218,1.15749827 42.4592218,1.49614458 L42.4592218,12.3739759 C42.4592218,12.7126222 42.3288827,13.0373984 42.0968775,13.2768576 C41.8648724,13.5163167 41.550206,13.6508434 41.2221012,13.6508434 L41.0047471,13.6508434 C40.3215042,13.6508434 39.7676265,13.0791703 39.7676265,12.3739759 L39.7676265,9.97879518 L40.0389105,3.64168675 L36.8194553,12.8091566 C36.6426867,13.3146448 36.1781869,13.6517921 35.6575097,13.6525301 L35.551284,13.6525301 C35.0300076,13.6525022 34.5646766,13.3152259 34.3877043,12.8091566 L31.1796887,3.65180723 L31.4477043,9.98048193 L31.4477043,12.3756627 C31.4477043,13.0808571 30.8938265,13.6525301 30.2105837,13.6525301 L30.003035,13.6525301 C29.3197922,13.6525301 28.7659144,13.0808571 28.7659144,12.3756627 L28.7659144,1.49614458 C28.7659144,0.790950147 29.3197922,0.219277108 30.003035,0.219277108 L31.3954086,0.219277108 C31.9195727,0.218898661 32.3870739,0.55950198 32.5622568,1.06939759 L32.5622568,1.06939759 Z" id="Path"></path>
                                <path d="M49.4407004,8.91783133 L49.4407004,12.3739759 C49.4407004,13.0791703 48.8868226,13.6508434 48.2035798,13.6508434 L47.9960311,13.6508434 C47.3127883,13.6508434 46.7589105,13.0791703 46.7589105,12.3739759 L46.7589105,1.49614458 C46.7589105,0.790950147 47.3127883,0.219277108 47.9960311,0.219277108 L51.8364981,0.219277108 C52.7272518,0.19904288 53.6107924,0.388234658 54.4202335,0.77253012 C55.1284059,1.11076569 55.7237559,1.6577506 56.131284,2.34457831 C56.5357266,3.04522721 56.7428613,3.84839869 56.7294163,4.66385542 C56.7294163,5.97951807 56.2936187,7.01742972 55.4220233,7.77759036 C54.550428,8.537751 53.342179,8.91726908 51.7972763,8.91614458 L49.4407004,8.91783133 Z M49.4407004,6.67614458 L51.8364981,6.67614458 C52.5457588,6.67614458 53.0866926,6.50409639 53.4592996,6.16 C53.8319066,5.81590361 54.0182101,5.32393574 54.0182101,4.68409639 C54.0431981,4.09600893 53.8403237,3.52184855 53.4543969,3.08843373 C53.0785214,2.68248996 52.5599222,2.47333333 51.8985992,2.46096386 L49.4472374,2.46096386 L49.4407004,6.67614458 Z" id="Shape"></path>
                                <path d="M69.1284047,0.219277108 C69.8116475,0.219277108 70.3655253,0.790950147 70.3655253,1.49614458 L70.3655253,9.06626506 C70.3655253,10.5359839 69.9199222,11.6981526 69.028716,12.5527711 C68.1375097,13.4073896 66.9232685,13.8335743 65.3859922,13.8313253 C63.8661479,13.8313253 62.6595331,13.4163855 61.7661479,12.586506 C60.8727626,11.7566265 60.4168093,10.6158233 60.3982879,9.16409639 L60.3982879,1.49614458 C60.3982879,1.15749827 60.5286271,0.832722033 60.7606322,0.593262932 C60.9926373,0.353803831 61.3073038,0.219277108 61.6354086,0.219277108 L61.8429572,0.219277108 C62.5262001,0.219277108 63.0800778,0.790950147 63.0800778,1.49614458 L63.0800778,9.08650602 C63.0800778,9.96586345 63.284358,10.6068273 63.6929183,11.0093976 C64.1014786,11.4119679 64.6658366,11.613253 65.3859922,11.613253 C66.8938521,11.613253 67.6592218,10.7951807 67.6821012,9.15903614 L67.6821012,1.49614458 C67.6821012,0.790950147 68.2359789,0.219277108 68.9192218,0.219277108 L69.1284047,0.219277108 Z" id="Path"></path>
                                <path d="M81.2773541,10.1204819 C81.3022354,9.6523241 81.1016512,9.20165796 80.741323,8.91614458 C80.3839689,8.63614458 79.7406226,8.34096386 78.811284,8.03060241 C78.0508918,7.79154818 77.3121413,7.48452217 76.6034241,7.11301205 C75.12607,6.28875502 74.387393,5.1788755 74.387393,3.78337349 C74.3809637,3.09188502 74.5888181,2.41637356 74.9806226,1.85542169 C75.4174035,1.25458847 76.0092374,0.792798568 76.6884047,0.522891566 C77.4821169,0.193103386 78.3316482,0.0302397776 79.1871595,0.0438554217 C80.0421337,0.0280849677 80.8900597,0.205997525 81.6712062,0.565060241 C82.358152,0.875930314 82.9453288,1.38194026 83.3642802,2.02409639 C83.4220233,2.11518072 83.4764981,2.20851406 83.5277043,2.30409639 C83.7328229,2.69995765 83.721463,3.17791467 83.497785,3.56291905 C83.2741071,3.94792344 82.8709743,4.18340965 82.4360311,4.18313253 L82.2807782,4.18313253 C81.7762586,4.17498296 81.3275345,3.85018277 81.148249,3.36337349 C81.0564256,3.12734809 80.9119718,2.91699722 80.7266148,2.74939759 C80.3507393,2.41204819 79.8234241,2.24337349 79.1446693,2.24337349 C78.4909728,2.24337349 77.9816342,2.38618474 77.6166537,2.67180723 C77.2646239,2.93198581 77.0602286,3.35517342 77.0708171,3.80192771 C77.0708171,4.23823293 77.2838132,4.60425703 77.7098054,4.9 C78.2941575,5.26887868 78.9264154,5.55001261 79.5875486,5.73493976 C81.1128405,6.20835341 82.2241245,6.79590361 82.9214008,7.49759036 C83.6113163,8.18018396 83.9909579,9.13100573 83.9673152,10.1171084 C83.9673152,11.2798394 83.541323,12.191245 82.6893385,12.8513253 C81.8373541,13.5114056 80.6901167,13.8380723 79.2476265,13.8313253 C78.3076839,13.8441414 77.3758031,13.6509724 76.5135409,13.2645783 C75.756665,12.9410287 75.104363,12.4023041 74.6325292,11.7110843 C74.5404144,11.5713206 74.4574289,11.4253746 74.3841245,11.2742169 C74.1899054,10.8777177 74.2090399,10.4055801 74.4346625,10.0272069 C74.6602851,9.64883369 75.060044,9.41847942 75.4905058,9.41879518 L75.6277821,9.41879518 C76.1515158,9.41196187 76.6207896,9.75161883 76.7929961,10.2621687 C77.0817121,11.17751 77.8988327,11.6351807 79.244358,11.6351807 C79.8817121,11.6351807 80.3790661,11.5013655 80.7364202,11.2337349 C81.0876495,10.9810504 81.2911999,10.5621395 81.2773541,10.1204819 L81.2773541,10.1204819 Z" id="Path"></path>
                            </g>
                        </g>
                    </g>
                </g>
            </g>
        </g>
    </g>
</svg>