<?xml version="1.0"?>
<svg xmlns="http://www.w3.org/2000/svg" id="Layer_3" enable-background="new 0 0 64 64" height="512px" viewBox="0 0 64 64" width="512px" class=""><g><g fill="#f4b2b0"><path d="m8 58h18v4h-18z" data-original="#000000" class=""/><path d="m38 58h18v4h-18z" data-original="#000000" class=""/><path d="m10 54h14v4h-14z" data-original="#000000" class=""/><path d="m40 54h14v4h-14z" data-original="#000000" class=""/><circle cx="32" cy="10" r="8" data-original="#000000" class=""/><path d="m26 42h12v8h-12z" data-original="#000000" class=""/><path d="m46 22h8v6h-8z" data-original="#000000" class=""/><path d="m46 32h8v6h-8z" data-original="#000000" class=""/><path d="m34 32h8v6h-8z" data-original="#000000" class=""/><path d="m22 32h8v6h-8z" data-original="#000000" class=""/><path d="m10 32h8v6h-8z" data-original="#000000" class=""/><path d="m10 22h8v6h-8z" data-original="#000000" class=""/><path d="m22 22h8v6h-8z" data-original="#000000" class=""/><path d="m34 22h8v6h-8z" data-original="#000000" class=""/></g><path d="m60 63c.553 0 1-.448 1-1v-8-37h1c.553 0 1-.448 1-1v-10c0-.552-.447-1-1-1h-22.522c-1.616-2.41-4.364-4-7.478-4s-5.862 1.59-7.478 4h-22.522c-.553 0-1 .448-1 1v10c0 .552.447 1 1 1h1v37 8c0 .552.447 1 1 1zm-28-56h3v-2h-2v-1.92c3.386.488 6 3.401 6 6.92s-2.614 6.432-6 6.92v-2.104c1.161-.414 2-1.514 2-2.816 0-1.654-1.346-3-3-3-.552 0-1-.449-1-1s.448-1 1-1zm-1-3.92v2.104c-1.161.414-2 1.514-2 2.816 0 1.654 1.346 3 3 3 .552 0 1 .449 1 1s-.448 1-1 1h-3v2h2v1.92c-3.386-.488-6-3.401-6-6.92s2.614-6.432 6-6.92zm-28 11.92v-8h20.525c-.334.94-.525 1.947-.525 3 0 1.849.562 3.569 1.522 5zm4 43v3h-2v-6h4v2h-1c-.553 0-1 .448-1 1zm18 3h-16v-2h1 14 1zm-2-6v2h-12v-2zm-10-2v-8h8v8zm24 5v3h-10v-3c0-.552-.447-1-1-1h-1v-2h14v2h-1c-.553 0-1 .448-1 1zm18 3h-16v-2h1 14 1zm-2-6v2h-12v-2zm-10-2v-8h8v8zm16 8h-2v-3c0-.552-.447-1-1-1h-1v-2h4zm-6-8v-9c0-.552-.447-1-1-1h-10c-.553 0-1 .448-1 1v9h-18v-9c0-.552-.447-1-1-1h-10c-.553 0-1 .448-1 1v9h-6v-36h21.356c1.545 1.248 3.508 2 5.644 2s4.099-.752 5.644-2h21.356v36zm8-38h-21.522c.96-1.431 1.522-3.151 1.522-5 0-1.053-.191-2.06-.525-3h20.525z" fill="#b3404a" data-original="#B3404A" class="active-path" data-old_color="#b3404a" style="fill:#DC3545"/><path d="m18 21h-8c-.553 0-1 .448-1 1v6c0 .552.447 1 1 1h8c.553 0 1-.448 1-1v-6c0-.552-.447-1-1-1zm-1 6h-6v-4h6z" fill="#b3404a" data-original="#B3404A" class="active-path" data-old_color="#b3404a" style="fill:#DC3545"/><path d="m22 29h8c.553 0 1-.448 1-1v-6c0-.552-.447-1-1-1h-8c-.553 0-1 .448-1 1v6c0 .552.447 1 1 1zm1-6h6v4h-6z" fill="#b3404a" data-original="#B3404A" class="active-path" data-old_color="#b3404a" style="fill:#DC3545"/><path d="m33 22v6c0 .552.447 1 1 1h8c.553 0 1-.448 1-1v-6c0-.552-.447-1-1-1h-8c-.553 0-1 .448-1 1zm2 1h6v4h-6z" fill="#b3404a" data-original="#B3404A" class="active-path" data-old_color="#b3404a" style="fill:#DC3545"/><path d="m46 29h8c.553 0 1-.448 1-1v-6c0-.552-.447-1-1-1h-8c-.553 0-1 .448-1 1v6c0 .552.447 1 1 1zm1-6h6v4h-6z" fill="#b3404a" data-original="#B3404A" class="active-path" data-old_color="#b3404a" style="fill:#DC3545"/><path d="m18 31h-8c-.553 0-1 .448-1 1v6c0 .552.447 1 1 1h8c.553 0 1-.448 1-1v-6c0-.552-.447-1-1-1zm-1 6h-6v-4h6z" fill="#b3404a" data-original="#B3404A" class="active-path" data-old_color="#b3404a" style="fill:#DC3545"/><path d="m31 38v-6c0-.552-.447-1-1-1h-8c-.553 0-1 .448-1 1v6c0 .552.447 1 1 1h8c.553 0 1-.448 1-1zm-2-1h-6v-4h6z" fill="#b3404a" data-original="#B3404A" class="active-path" data-old_color="#b3404a" style="fill:#DC3545"/><path d="m42 31h-8c-.553 0-1 .448-1 1v6c0 .552.447 1 1 1h8c.553 0 1-.448 1-1v-6c0-.552-.447-1-1-1zm-1 6h-6v-4h6z" fill="#b3404a" data-original="#B3404A" class="active-path" data-old_color="#b3404a" style="fill:#DC3545"/><path d="m46 39h8c.553 0 1-.448 1-1v-6c0-.552-.447-1-1-1h-8c-.553 0-1 .448-1 1v6c0 .552.447 1 1 1zm1-6h6v4h-6z" fill="#b3404a" data-original="#B3404A" class="active-path" data-old_color="#b3404a" style="fill:#DC3545"/><path d="m38 41h-12c-.553 0-1 .448-1 1v8c0 .552.447 1 1 1h12c.553 0 1-.448 1-1v-8c0-.552-.447-1-1-1zm-1 8h-10v-6h10z" fill="#b3404a" data-original="#B3404A" class="active-path" data-old_color="#b3404a" style="fill:#DC3545"/><path d="m29 45h6v2h-6z" fill="#b3404a" data-original="#B3404A" class="active-path" data-old_color="#b3404a" style="fill:#DC3545"/></g> </svg>
