<?xml version="1.0"?>
<svg xmlns="http://www.w3.org/2000/svg" id="Layer_3" enable-background="new 0 0 64 64" height="512px" viewBox="0 0 64 64" width="512px" class=""><g><path d="m32 6c-5.523 0-10 4.477-10 10s4.477 10 10 10 10-4.477 10-10-4.477-10-10-10zm0 17c-3.866 0-7-3.134-7-7s3.134-7 7-7 7 3.134 7 7-3.134 7-7 7z" fill="#f4b2b0" data-original="#F4B2B0"/><g fill="#b3404a"><path d="m32 63c6.77 0 13.202-2.144 18.601-6.198l-1.201-1.6c-5.05 3.793-11.067 5.798-17.4 5.798-15.991 0-29-13.009-29-29 0-6.996 2.477-13.629 7-18.885v4.885h2v-7c0-.552-.448-1-1-1h-7v2h4.324c-4.734 5.589-7.324 12.604-7.324 20 0 17.093 13.907 31 31 31z" data-original="#000000" class="active-path" data-old_color="#000000" style="fill:#DC3545"/><path d="m32 1c-6.77 0-13.202 2.144-18.601 6.198l1.201 1.6c5.05-3.793 11.067-5.798 17.4-5.798 15.991 0 29 13.009 29 29 0 6.996-2.477 13.629-7 18.885v-4.885h-2v7c0 .552.448 1 1 1h7v-2h-4.324c4.734-5.589 7.324-12.604 7.324-20 0-17.093-13.907-31-31-31z" data-original="#000000" class="active-path" data-old_color="#000000" style="fill:#DC3545"/><path d="m14 33v18c0 1.654 1.346 3 3 3h30c1.654 0 3-1.346 3-3v-18c0-1.654-1.346-3-3-3h-30c-1.654 0-3 1.346-3 3zm33 19h-30c-.551 0-1-.449-1-1v-13h32v13c0 .551-.449 1-1 1zm1-19v3h-32v-3c0-.551.449-1 1-1h30c.551 0 1 .449 1 1z" data-original="#000000" class="active-path" data-old_color="#000000" style="fill:#DC3545"/><path d="m40 48h6v2h-6z" data-original="#000000" class="active-path" data-old_color="#000000" style="fill:#DC3545"/><path d="m40 44h6v2h-6z" data-original="#000000" class="active-path" data-old_color="#000000" style="fill:#DC3545"/><path d="m43 16c0-6.065-4.935-11-11-11s-11 4.935-11 11 4.935 11 11 11 11-4.935 11-11zm-2 0c0 4.624-3.507 8.441-8 8.941v-2.083c1.72-.447 3-2 3-3.858 0-2.206-1.794-4-4-4-1.103 0-2-.897-2-2s.897-2 2-2 2 .897 2 2h2c0-1.858-1.28-3.411-3-3.858v-2.083c4.493.5 8 4.317 8 8.941zm-18 0c0-4.624 3.507-8.441 8-8.941v2.083c-1.72.447-3 2-3 3.858 0 2.206 1.794 4 4 4 1.103 0 2 .897 2 2s-.897 2-2 2-2-.897-2-2h-2c0 1.858 1.28 3.411 3 3.858v2.083c-4.493-.5-8-4.317-8-8.941z" data-original="#000000" class="active-path" data-old_color="#000000" style="fill:#DC3545"/><path d="m27 40c-.712 0-1.386.154-2 .424-.614-.27-1.288-.424-2-.424-2.757 0-5 2.243-5 5s2.243 5 5 5c.712 0 1.386-.154 2-.424.614.27 1.288.424 2 .424 2.757 0 5-2.243 5-5s-2.243-5-5-5zm-1 5c0 .883-.391 1.67-1 2.22-.609-.549-1-1.337-1-2.22s.391-1.67 1-2.22c.609.55 1 1.337 1 2.22zm-6 0c0-1.654 1.346-3 3-3 .008 0 .016.002.024.002-.634.838-1.024 1.869-1.024 2.998s.39 2.16 1.024 2.998c-.008 0-.016.002-.024.002-1.654 0-3-1.346-3-3zm7 3c-.008 0-.016-.002-.024-.002.634-.838 1.024-1.869 1.024-2.998s-.39-2.16-1.024-2.998c.008 0 .016-.002.024-.002 1.654 0 3 1.346 3 3s-1.346 3-3 3z" data-original="#000000" class="active-path" data-old_color="#000000" style="fill:#DC3545"/></g></g> </svg>
