<?xml version="1.0"?>
<svg xmlns="http://www.w3.org/2000/svg" id="Layer_3" enable-background="new 0 0 64 64" height="512px" viewBox="0 0 64 64" width="512px" class=""><g><path d="m60 46h-20c-1.105 0-2 .895-2 2v4h24v-4c0-1.105-.895-2-2-2z" fill="#f4b2b0" data-original="#F4B2B0"/><circle cx="10" cy="10" fill="#f4b2b0" r="8" data-original="#F4B2B0"/><g fill="#b3404a"><path d="m2 63h18c.552 0 1-.447 1-1v-4c0-3.401-2.44-6.241-5.66-6.868.576-.605 1.025-1.329 1.31-2.132h1.35c1.654 0 3-1.346 3-3 0-1.302-.839-2.402-2-2.816v-3.184c0-2.757-2.243-5-5-5h-6c-2.757 0-5 2.243-5 5v3.184c-1.161.414-2 1.514-2 2.816 0 1.654 1.346 3 3 3h1.35c.285.803.734 1.527 1.31 2.132-3.22.627-5.66 3.467-5.66 6.868v4c0 .553.448 1 1 1zm5-16v-2h1c1.612 0 4.21-.876 5.747-2.374.329.531.755.996 1.253 1.371v3.003c0 2.206-1.794 4-4 4s-4-1.794-4-4zm6 6c0 1.103-.897 2-2 2s-2-.897-2-2zm5-6h-1v-2h1c.551 0 1 .448 1 1s-.449 1-1 1zm-13-7c0-1.654 1.346-3 3-3h6c1.654 0 3 1.346 3 3v2.829c-1.164-.413-2-1.525-2-2.829 0-.553-.448-1-1-1s-1 .447-1 1c0 1.391-3.026 3-5 3h-3zm-1 7c-.551 0-1-.448-1-1s.449-1 1-1h1v2zm-1 11c0-2.418 1.726-4.439 4.01-4.9.055 2.159 1.819 3.9 3.99 3.9s3.935-1.741 3.99-3.9c2.284.461 4.01 2.482 4.01 4.9v3h-2v-4h-2v4h-8v-4h-2v4h-2z" data-original="#000000" class="active-path" data-old_color="#000000" style="fill:#DC3545"/><path d="m11 5h-2v2h-1c-.404 0-.769.244-.924.617-.155.374-.069.804.217 1.09l2.293 2.293h-2.586v2h2v2h2v-2h1c.404 0 .769-.244.924-.617.155-.374.069-.804-.217-1.09l-2.293-2.293h2.586v-2h-2z" data-original="#000000" class="active-path" data-old_color="#000000" style="fill:#DC3545"/><path d="m63 10c0-4.962-4.038-9-9-9-2.994 0-5.643 1.475-7.28 3.73-4.503-2.433-9.567-3.73-14.72-3.73-5.155 0-10.216 1.297-14.719 3.731-1.637-2.256-4.287-3.731-7.281-3.731-4.962 0-9 4.038-9 9 0 2.993 1.475 5.643 3.73 7.28-2.433 4.503-3.73 9.567-3.73 14.72 0 1.383.092 2.772.273 4.132l1.982-.264c-.169-1.272-.255-2.574-.255-3.868 0-4.804 1.205-9.525 3.465-13.725 1.086.465 2.281.725 3.535.725 4.962 0 9-4.038 9-9 0-1.254-.26-2.449-.725-3.535 4.201-2.261 8.918-3.465 13.725-3.465 4.805 0 9.525 1.205 13.725 3.466-.465 1.085-.725 2.28-.725 3.534 0 4.962 4.038 9 9 9 1.255 0 2.449-.26 3.535-.725 2.261 4.201 3.465 8.919 3.465 13.725 0 4.515-1.072 8.993-3.084 13h-1.916v-3c0-.553-.448-1-1-1h-10c-.552 0-1 .447-1 1v3h-4c-1.654 0-3 1.346-3 3v12c0 .187.022.369.055.546-4.557.798-9.342.511-13.756-.873l-.599 1.908c3.001.941 6.129 1.419 9.3 1.419 2.084 0 4.16-.217 6.185-.627.506.387 1.13.627 1.815.627h20c1.654 0 3-1.346 3-3v-12c0-1.608-1.274-2.914-2.864-2.986 1.873-4.055 2.864-8.518 2.864-13.014 0-5.155-1.297-10.215-3.731-14.72 2.256-1.637 3.731-4.286 3.731-7.28zm-53 7c-3.86 0-7-3.14-7-7s3.14-7 7-7 7 3.14 7 7-3.14 7-7 7zm36 26h8v2h-8zm14 18h-20c-.551 0-1-.448-1-1v-7h2v2h2v-2h14v2h2v-2h2v7c0 .552-.449 1-1 1zm1-13v3h-2v-2h-2v2h-14v-2h-2v2h-2v-3c0-.552.449-1 1-1h20c.551 0 1 .448 1 1zm-13.92-37h1.92v-2h-1.92c.44-3.059 2.861-5.48 5.92-5.92v1.92h2v-1.92c3.059.44 5.48 2.861 5.92 5.92h-1.92v2h1.92c-.441 3.059-2.861 5.48-5.92 5.92v-1.92h-2v1.92c-3.059-.44-5.48-2.861-5.92-5.92z" data-original="#000000" class="active-path" data-old_color="#000000" style="fill:#DC3545"/><path d="m54.707 11.707c.188-.187.293-.442.293-.707v-4h-2v3.586l-1.707 1.707 1.414 1.414z" data-original="#000000" class="active-path" data-old_color="#000000" style="fill:#DC3545"/><path d="m32 41c7.168 0 13-5.832 13-13s-5.832-13-13-13-13 5.832-13 13 5.832 13 13 13zm-10.949-12h4.971c.125 3.884.968 7.188 2.264 9.341-3.94-1.42-6.843-5.018-7.235-9.341zm10.949-12c1.787 0 3.77 4.214 3.979 10h-7.958c.209-5.786 2.192-10 3.979-10zm3.979 12c-.209 5.786-2.192 10-3.979 10s-3.77-4.214-3.979-10zm-.265 9.341c1.296-2.153 2.139-5.457 2.264-9.341h4.971c-.392 4.323-3.295 7.921-7.235 9.341zm7.235-11.341h-4.971c-.125-3.884-.968-7.188-2.264-9.341 3.94 1.42 6.843 5.018 7.235 9.341zm-14.663-9.341c-1.296 2.153-2.139 5.457-2.264 9.341h-4.971c.392-4.323 3.295-7.921 7.235-9.341z" data-original="#000000" class="active-path" data-old_color="#000000" style="fill:#DC3545"/></g></g> </svg>
