<?xml version="1.0"?>
<svg xmlns="http://www.w3.org/2000/svg" id="Layer_3" enable-background="new 0 0 64 64" height="512px" viewBox="0 0 64 64" width="512px" class="hovered-paths"><g><path d="m56 21h6v24h-6z" fill="#f4b2b0" data-original="#F4B2B0" class="" data-old_color="#f4b2b0" style="fill:#DC3545"/><path d="m2 21h6v24h-6z" fill="#f4b2b0" data-original="#F4B2B0" class="" data-old_color="#f4b2b0" style="fill:#DC3545"/><g fill="#b3404a"><path d="m62 20h-6c-.552 0-1 .448-1 1v1h-19c-.265 0-.52.105-.707.293l-2.293 2.293-.536-.536c-1.322-1.322-3.08-2.05-4.95-2.05h-18.514v-1c0-.552-.448-1-1-1h-6c-.552 0-1 .448-1 1v24c0 .553.448 1 1 1h6c.552 0 1-.447 1-1v-3l2.4 1.8c.173.13.384.2.6.2h1.586l-.465.465c-.723.723-1.121 1.683-1.121 2.707 0 2.11 1.717 3.828 3.829 3.828.065 0 .126-.015.19-.019-.004.065-.019.126-.019.191 0 2.11 1.717 3.828 3.829 3.828.065 0 .126-.015.19-.019-.004.065-.019.126-.019.191 0 2.11 1.717 3.828 3.829 3.828.065 0 .126-.015.19-.019-.004.065-.019.126-.019.191 0 2.11 1.717 3.828 3.829 3.828 1.022 0 1.983-.398 2.707-1.121l1.464-1.465 1.465 1.465c.723.723 1.684 1.121 2.706 1.121 2.112 0 3.829-1.718 3.829-3.828 0-.059-.001-.117-.004-.176 2.144.115 4.004-1.655 4.004-3.824 0-.059-.001-.117-.004-.176 2.159.101 4.004-1.655 4.004-3.824 0-.059-.001-.117-.004-.176 2.155.105 4.004-1.655 4.004-3.824 0-1.023-.398-1.984-1.122-2.707l-.464-.465h1.586c.216 0 .427-.07.6-.2l2.4-1.8v3c0 .553.448 1 1 1h6c.552 0 1-.447 1-1v-24c0-.552-.448-1-1-1zm-55 24h-4v-22h4zm8.829 5c-1.009 0-1.829-.82-1.829-1.828 0-.481.195-.952.535-1.293l5.342-5.344c.347-.345.806-.535 1.294-.535 1.009 0 1.829.82 1.829 1.828 0 .481-.195.952-.536 1.293l-5.343 5.344s-.001.001-.001.001c-.345.344-.804.534-1.291.534zm4 4c-1.009 0-1.829-.82-1.829-1.828 0-.481.195-.951.534-1.292 0 0 .001-.001.001-.001l5.342-5.344c.347-.345.806-.535 1.294-.535 1.009 0 1.829.82 1.829 1.828 0 .481-.195.952-.536 1.293l-5.343 5.344s-.001.001-.001.001c-.345.344-.804.534-1.291.534zm4 4c-1.009 0-1.829-.82-1.829-1.828 0-.481.195-.951.534-1.292 0 0 .001-.001.001-.001l5.342-5.344c.347-.345.806-.535 1.294-.535 1.009 0 1.829.82 1.829 1.828 0 .481-.195.952-.536 1.293l-5.343 5.344s-.001.001-.001.001c-.345.344-.804.534-1.291.534zm5.293 3.465c-.346.345-.805.535-1.293.535-1.009 0-1.829-.82-1.829-1.828 0-.481.195-.951.534-1.292 0 0 .001-.001.001-.001l5.342-5.344c.347-.345.806-.535 1.294-.535 1.009 0 1.829.82 1.829 1.828 0 .481-.195.952-.536 1.293zm7.049.535c-.488 0-.948-.19-1.293-.535l-1.464-1.465 2.464-2.465c.041-.041.071-.091.11-.133l1.477 1.477c.34.341.535.811.535 1.293 0 1.008-.82 1.828-1.829 1.828zm12-12c-.488 0-.948-.19-1.293-.535l-2.171-2.172c-.391-.391-1.023-.391-1.414 0-.195.195-.293.451-.293.707s.098.512.293.707l2.172 2.172c.34.341.535.811.535 1.293 0 1.008-.82 1.828-1.829 1.828-.488 0-.948-.19-1.293-.535l-2.171-2.172c-.391-.391-1.023-.391-1.414 0-.195.195-.293.451-.293.707s.098.512.293.707l2.172 2.172c.34.341.535.811.535 1.293 0 1.008-.82 1.828-1.829 1.828-.488 0-.948-.19-1.293-.535l-1.946-1.946c.042-.226.068-.456.068-.691 0-2.11-1.717-3.828-3.829-3.828-.065 0-.126.015-.19.019.004-.065.019-.126.019-.191 0-2.11-1.717-3.828-3.829-3.828-.065 0-.126.015-.19.019.004-.065.019-.126.019-.191 0-2.11-1.717-3.828-3.829-3.828-.065 0-.126.015-.19.019.004-.065.019-.126.019-.191 0-2.11-1.717-3.828-3.829-3.828-1.022 0-1.983.398-2.707 1.121l-2.878 2.879h-3.253l-3.333-2.5v-15.5h18.515c1.335 0 2.591.52 3.536 1.464l.535.536-5.257 5.257c-.857.857-1.329 1.996-1.329 3.208 0 2.501 2.035 4.535 4.536 4.535 1.212 0 2.351-.472 3.207-1.328l4.257-4.258 12.465 12.465c.34.341.535.811.535 1.293 0 1.008-.82 1.828-1.829 1.828zm3.496-7h-3.253l-10.707-10.707c-.375-.375-1.039-.375-1.414 0l-4.964 4.965c-.479.478-1.116.742-1.793.742-1.398 0-2.536-1.138-2.536-2.535 0-.678.264-1.314.743-1.793l8.671-8.672h18.586v15.5zm9.333 2h-4v-22h4z" data-original="#000000" class="hovered-path active-path" style="fill:#DC3545" data-old_color="#000000"/><path d="m42 11c0-5.514-4.486-10-10-10s-10 4.486-10 10 4.486 10 10 10 10-4.486 10-10zm-12.972 1h5.945c-.221 4.303-1.835 7-2.972 7s-2.752-2.697-2.973-7zm2.972-9c1.137 0 2.751 2.697 2.972 7h-5.945c.222-4.303 1.836-7 2.973-7zm3.56 15.154c.792-1.577 1.305-3.711 1.416-6.154h2.954c-.339 2.701-2.027 4.983-4.37 6.154zm4.371-8.154h-2.954c-.111-2.442-.624-4.577-1.416-6.154 2.342 1.171 4.03 3.453 4.37 6.154zm-11.491-6.154c-.792 1.577-1.306 3.712-1.416 6.154h-2.954c.339-2.701 2.027-4.983 4.37-6.154zm-4.371 8.154h2.954c.111 2.442.624 4.577 1.416 6.154-2.342-1.171-4.03-3.453-4.37-6.154z" data-original="#000000" class="hovered-path active-path" style="fill:#DC3545" data-old_color="#000000"/></g></g> </svg>
