<?xml version="1.0"?>
<svg xmlns="http://www.w3.org/2000/svg" id="Layer_3" enable-background="new 0 0 64 64" height="512px" viewBox="0 0 64 64" width="512px" class=""><g><g fill="#f4b2b0"><path d="m16 28v24h46v-24zm42 16c-2.209 0-4 1.791-4 4h-30c0-2.209-1.791-4-4-4v-8c2.209 0 4-1.791 4-4h30c0 2.209 1.791 4 4 4z" data-original="#000000" class=""/><path d="m8 62v-2c0-1.105.895-2 2-2h16c1.105 0 2 .895 2 2v2z" data-original="#000000" class=""/><path d="m11 8h14l5.892-5.892c-.288-.066-.584-.108-.892-.108h-24c-.308 0-.604.042-.892.108z" data-original="#000000" class=""/></g><path d="m62 27h-27v-5h14v2c0 .404.244.77.617.924.124.052.254.076.383.076.26 0 .516-.102.707-.293l5-5c.391-.391.391-1.023 0-1.414l-5-5c-.287-.287-.716-.374-1.09-.217-.373.154-.617.52-.617.924v2h-14v-10c0-2.757-2.243-5-5-5h-24c-2.757 0-5 2.243-5 5v52c0 2.757 2.243 5 5 5h24c2.757 0 5-2.243 5-5v-5h27c.552 0 1-.447 1-1v-24c0-.553-.448-1-1-1zm-12-9c.552 0 1-.447 1-1v-.586l2.586 2.586-2.586 2.586v-.586c0-.553-.448-1-1-1h-22c-.552 0-1 .447-1 1v.586l-2.586-2.586 2.586-2.586v.586c0 .553.448 1 1 1zm-21.414-15-4 4h-13.172l-4-4zm-1.586 58h-18v-1c0-.552.449-1 1-1h16c.551 0 1 .448 1 1zm6-3c0 1.654-1.346 3-3 3h-1v-1c0-1.654-1.346-3-3-3h-16c-1.654 0-3 1.346-3 3v1h-1c-1.654 0-3-1.346-3-3v-52c0-1.238.754-2.302 1.826-2.76l5.467 5.467c.187.188.442.293.707.293h14c.265 0 .52-.105.707-.293l5.467-5.467c1.072.458 1.826 1.522 1.826 2.76v10h-4v-2c0-.404-.244-.77-.617-.924-.375-.157-.804-.07-1.09.217l-5 5c-.391.391-.391 1.023 0 1.414l5 5c.286.286.715.372 1.09.217.373-.154.617-.52.617-.924v-2h4v5h-17c-.552 0-1 .447-1 1v24c0 .553.448 1 1 1h17zm28-7h-44v-22h44z" fill="#b3404a" data-original="#B3404A" class="active-path" data-old_color="#b3404a" style="fill:#DC3545"/><path d="m20 45c1.654 0 3 1.346 3 3 0 .553.448 1 1 1h30c.552 0 1-.447 1-1 0-1.654 1.346-3 3-3 .552 0 1-.447 1-1v-8c0-.553-.448-1-1-1-1.654 0-3-1.346-3-3 0-.553-.448-1-1-1h-30c-.552 0-1 .447-1 1 0 1.654-1.346 3-3 3-.552 0-1 .447-1 1v8c0 .553.448 1 1 1zm20 1.92v-2.104c1.161-.414 2-1.514 2-2.816 0-1.654-1.346-3-3-3-.551 0-1-.448-1-1s.449-1 1-1h3v-2h-2v-1.92c3.387.488 6 3.401 6 6.92s-2.613 6.432-6 6.92zm-2-13.84v2.104c-1.161.414-2 1.514-2 2.816 0 1.654 1.346 3 3 3 .551 0 1 .448 1 1s-.449 1-1 1h-3v2h2v1.92c-3.387-.488-6-3.401-6-6.92s2.613-6.432 6-6.92zm15.101-.08c.398 1.956 1.943 3.501 3.899 3.899v6.201c-1.956.398-3.501 1.943-3.899 3.899h-8.456c2.043-1.65 3.355-4.173 3.355-6.999s-1.312-5.349-3.356-7zm-32.101 3.899c1.956-.398 3.501-1.943 3.899-3.899h8.456c-2.043 1.651-3.355 4.174-3.355 7s1.312 5.349 3.356 7h-8.456c-.398-1.956-1.943-3.501-3.899-3.899v-6.202z" fill="#b3404a" data-original="#B3404A" class="active-path" data-old_color="#b3404a" style="fill:#DC3545"/></g> </svg>
